<svg width="360" height="640" viewBox="0 0 360 640" fill="none" xmlns="http://www.w3.org/2000/svg">
  <!-- Phone body -->
  <rect width="360" height="640" rx="32" fill="#0D0B11"/>
  <rect x="1" y="1" width="358" height="638" rx="31" stroke="#3A3445" stroke-width="2"/>

  <!-- Status bar -->
  <rect x="0" y="0" width="360" height="44" rx="32" fill="#120E16"/>
  <rect x="0" y="32" width="360" height="12" fill="#120E16"/>
  <!-- Status bar content -->
  <text x="20" y="28" font-family="'Segoe UI', Arial, sans-serif" font-size="12" fill="#9E9AA6">9:41</text>
  <text x="310" y="28" font-family="'Segoe UI', Arial, sans-serif" font-size="12" fill="#9E9AA6">●●●</text>

  <!-- App bar -->
  <rect x="0" y="44" width="360" height="60" fill="#1E1A24"/>
  <text x="20" y="82" font-family="Georgia, serif" font-weight="700" font-size="20" fill="#A78BFA" letter-spacing="2">FICTIONIST</text>
  <!-- Search icon -->
  <circle cx="320" cy="74" r="12" fill="#2D2836"/>
  <text x="320" y="79" font-family="Arial" font-size="13" fill="#9E9AA6" text-anchor="middle">⌕</text>

  <!-- Divider -->
  <line x1="0" y1="104" x2="360" y2="104" stroke="#3A3445" stroke-width="1"/>

  <!-- Content area -->
  <rect x="0" y="104" width="360" height="536" fill="#120E16"/>

  <!-- Greeting -->
  <text x="20" y="132" font-family="Georgia, serif" font-size="13" fill="#9E9AA6">Welcome, Archivist</text>

  <!-- Stats row -->
  <!-- Stat card 1 -->
  <rect x="16" y="142" width="98" height="70" rx="10" fill="#1E1A24" stroke="#3A3445" stroke-width="1"/>
  <text x="65" y="162" font-family="Georgia, serif" font-size="10" fill="#9E9AA6" text-anchor="middle">Characters</text>
  <text x="65" y="188" font-family="Georgia, serif" font-size="28" font-weight="700" fill="#A78BFA" text-anchor="middle">52</text>

  <!-- Stat card 2 -->
  <rect x="122" y="142" width="98" height="70" rx="10" fill="#1E1A24" stroke="#3A3445" stroke-width="1"/>
  <text x="171" y="162" font-family="Georgia, serif" font-size="10" fill="#9E9AA6" text-anchor="middle">Relationships</text>
  <text x="171" y="188" font-family="Georgia, serif" font-size="28" font-weight="700" fill="#D4A373" text-anchor="middle">218</text>

  <!-- Stat card 3 -->
  <rect x="228" y="142" width="98" height="70" rx="10" fill="#1E1A24" stroke="#F87171" stroke-width="1" stroke-opacity="0.4"/>
  <text x="277" y="162" font-family="Georgia, serif" font-size="10" fill="#9E9AA6" text-anchor="middle">Orphans ⚠</text>
  <text x="277" y="188" font-family="Georgia, serif" font-size="28" font-weight="700" fill="#F87171" text-anchor="middle">4</text>

  <!-- Section title -->
  <text x="20" y="238" font-family="Georgia, serif" font-size="11" font-weight="700" fill="#9E9AA6" letter-spacing="1">RECENT SCROLLS</text>
  <line x1="20" y1="246" x2="340" y2="246" stroke="#3A3445" stroke-width="1"/>

  <!-- Entity list items -->
  <!-- Item 1 -->
  <rect x="16" y="254" width="328" height="52" rx="8" fill="#1E1A24"/>
  <rect x="16" y="254" width="4" height="52" rx="2" fill="#A78BFA"/>
  <text x="32" y="271" font-family="'Segoe UI', Arial, sans-serif" font-size="9" fill="#A78BFA">👤 CHARACTER</text>
  <text x="32" y="290" font-family="Georgia, serif" font-size="15" font-weight="700" fill="#E2E0E6">Elidor Thorne</text>
  <rect x="264" y="262" width="48" height="18" rx="9" fill="#34D399" fill-opacity="0.15" stroke="#34D399" stroke-width="1"/>
  <text x="288" y="275" font-family="'Segoe UI', Arial" font-size="9" fill="#34D399" text-anchor="middle">Canon</text>

  <!-- Item 2 -->
  <rect x="16" y="314" width="328" height="52" rx="8" fill="#1E1A24"/>
  <rect x="16" y="314" width="4" height="52" rx="2" fill="#3B82F6"/>
  <text x="32" y="331" font-family="'Segoe UI', Arial, sans-serif" font-size="9" fill="#3B82F6">🗺 LOCATION</text>
  <text x="32" y="350" font-family="Georgia, serif" font-size="15" font-weight="700" fill="#E2E0E6">Scania Valley</text>
  <rect x="258" y="322" width="56" height="18" rx="9" fill="#FBBF24" fill-opacity="0.15" stroke="#FBBF24" stroke-width="1"/>
  <text x="286" y="335" font-family="'Segoe UI', Arial" font-size="9" fill="#FBBF24" text-anchor="middle">Draft</text>

  <!-- Item 3 -->
  <rect x="16" y="374" width="328" height="52" rx="8" fill="#1E1A24"/>
  <rect x="16" y="374" width="4" height="52" rx="2" fill="#F59E0B"/>
  <text x="32" y="391" font-family="'Segoe UI', Arial, sans-serif" font-size="9" fill="#F59E0B">🛡 FACTION</text>
  <text x="32" y="410" font-family="Georgia, serif" font-size="15" font-weight="700" fill="#E2E0E6">Genius Society</text>
  <rect x="264" y="382" width="48" height="18" rx="9" fill="#34D399" fill-opacity="0.15" stroke="#34D399" stroke-width="1"/>
  <text x="288" y="395" font-family="'Segoe UI', Arial" font-size="9" fill="#34D399" text-anchor="middle">Canon</text>

  <!-- Item 4 -->
  <rect x="16" y="434" width="328" height="52" rx="8" fill="#1E1A24"/>
  <rect x="16" y="434" width="4" height="52" rx="2" fill="#EF4444"/>
  <text x="32" y="451" font-family="'Segoe UI', Arial, sans-serif" font-size="9" fill="#EF4444">⚡ POWER SYSTEM</text>
  <text x="32" y="470" font-family="Georgia, serif" font-size="15" font-weight="700" fill="#E2E0E6">Runic Binding</text>
  <rect x="258" y="442" width="56" height="18" rx="9" fill="#FBBF24" fill-opacity="0.15" stroke="#FBBF24" stroke-width="1"/>
  <text x="286" y="455" font-family="'Segoe UI', Arial" font-size="9" fill="#FBBF24" text-anchor="middle">Draft</text>

  <!-- FAB -->
  <circle cx="296" cy="560" r="28" fill="#A78BFA"/>
  <text x="296" y="566" font-size="22" text-anchor="middle" fill="#120E16">+</text>
  <!-- FAB glow -->
  <circle cx="296" cy="560" r="28" fill="none" stroke="#A78BFA" stroke-width="6" opacity="0.2"/>

  <!-- Bottom nav bar -->
  <rect x="0" y="596" width="360" height="44" fill="#1E1A24"/>
  <line x1="0" y1="596" x2="360" y2="596" stroke="#3A3445" stroke-width="1"/>
  <text x="45" y="622" font-size="18" text-anchor="middle">🏠</text>
  <text x="135" y="622" font-size="18" text-anchor="middle">🔍</text>
  <text x="225" y="622" font-size="18" text-anchor="middle">📅</text>
  <text x="315" y="622" font-size="18" text-anchor="middle">⚙️</text>
</svg>
